# xmcd
#
# Track frame offsets:
#	150
#	15522
#	36867
#	53460
#	65755
#	77795
#	88865
#	101262
#	118717
#	130029
#	141500
#	155540
#	173930
#	188207
#	201437
#	216145
#	226682
#	238095
#	249070
#
# Disc length: 3434 seconds
#
# Revision: 0
# Processed by: cddbd v1.5.1PL0 Copyright (c) Steve Scherf et al.
# Submitted via: dBpowerAMP V4.0
#
DISCID=000d6813
DTITLE=John Hammond Jr. - Country Blues
DYEAR=1965
DGENRE=Blues
TTITLE0=Traveling Riverside Blues
TTITLE1=Hitchhiking Woman
TTITLE2=Statesborough Blues
TTITLE3=Milk Cow's Calf Blues
TTITLE4=Crawling Kingsnake
TTITLE5=Bull Frog Blues
TTITLE6=Drop Down Mama
TTITLE7=Little Rain Falling
TTITLE8=Seventh Son
TTITLE9=Who Do You Love
TTITLE10=32-20 Blues
TTITLE11=Goin' Down Slow
TTITLE12=Stones In My Passway
TTITLE13=Walking Blues
TTITLE14=Death Don't Have No Mercy
TTITLE15=Motherless Willie Johnson
TTITLE16=When You Are Gone
TTITLE17=Rock Me Mama
TTITLE18=Get Right Church
EXTD=
EXTT0=
EXTT1=
EXTT2=
EXTT3=
EXTT4=
EXTT5=
EXTT6=
EXTT7=
EXTT8=
EXTT9=
EXTT10=
EXTT11=
EXTT12=
EXTT13=
EXTT14=
EXTT15=
EXTT16=
EXTT17=
EXTT18=
PLAYORDER=
